<svg height="32" version="1" viewBox="0 0 32 32" width="32" xmlns="http://www.w3.org/2000/svg"><path clip-rule="evenodd" d="M32 30a2 2 0 0 1-2 2H2a2 2 0 0 1-2-2V2a2 2 0 0 1 2-2h28a2 2 0 0 1 2 2v28z" fill="#E02F2F" fill-rule="evenodd"/><path d="M19 6h-6.164c-2.82 0-5.475 1.979-5.475 4.453 0 2.528 1.922 4.494 4.791 4.494.2 0 .394-.045.584-.059-.188.355-.318.737-.318 1.154 0 .703.377 1.264.854 1.729-.358 0-.709.005-1.09.005C8.689 17.777 6 20 6 22.307c0 2.272 2.948 3.695 6.441 3.695 3.983 0 6.183-2.262 6.183-4.534 0-1.821-.538-2.913-2.199-4.091-.569-.401-1.656-1.38-1.656-1.956 0-.674.192-1.006 1.208-1.8 1.039-.812 1.776-1.781 1.776-3.111 0-1.581-.68-3.51-2.003-3.51H18l1-1zm-2.069 15.074c.048.212.077.429.077.649 0 1.836-1.185 3.271-4.58 3.271-2.415 0-4.158-1.528-4.158-3.364 0-1.799 2.163-3.298 4.579-3.271a5.326 5.326 0 0 1 1.564.249c1.311.913 2.251 1.428 2.518 2.466zm-3.868-6.849c-1.621-.047-3.162-1.813-3.441-3.94-.279-2.13.808-3.759 2.428-3.711 1.62.05 3.162 1.758 3.441 3.886.28 2.128-.807 3.813-2.428 3.765zM24 13.993v-3h-2v3h-3v2h3v3h2v-3h3v-2z" fill="#FFF"/></svg>