<?xml version="1.0" encoding="utf-8"?>
<!-- Generator: Adobe Illustrator 14.0.0, SVG Export Plug-In . SVG Version: 6.00 Build 43363)  -->
<!DOCTYPE svg PUBLIC "-//W3C//DTD SVG 1.1//EN" "http://www.w3.org/Graphics/SVG/1.1/DTD/svg11.dtd">
<svg version="1.1" id="Capa_1" xmlns="http://www.w3.org/2000/svg" xmlns:xlink="http://www.w3.org/1999/xlink" x="0px" y="0px"
	 width="12.6px" height="12.859px" viewBox="-0.3 -2.572 12.6 12.859" enable-background="new -0.3 -2.572 12.6 12.859"
	 xml:space="preserve">
<g>
	<path fill="#999999" d="M11.948,8.237l-3.277-3.25c1.15-1.909,0.916-4.458-0.696-6.109c-1.887-1.93-4.973-1.93-6.86-0.001
		c-1.885,1.931-1.89,5.089-0.005,7.021c1.597,1.636,4.063,1.885,5.925,0.748l3.328,3.313c0.457,0.456,1.179,0.434,1.616-0.041
		C12.417,9.44,12.405,8.692,11.948,8.237z M6.59,4.477c-1.138,1.165-2.954,1.165-4.091,0s-1.137-3.021,0-4.186
		c1.137-1.163,2.953-1.163,4.091,0C7.728,1.456,7.728,3.312,6.59,4.477z"/>
	<rect x="-1.5" y="-2.572" fill="none" width="15" height="12.858"/>
</g>
</svg>
