<?xml version="1.0" encoding="utf-8"?>
<!-- Generator: Adobe Illustrator 14.0.0, SVG Export Plug-In . SVG Version: 6.00 Build 43363)  -->
<!DOCTYPE svg PUBLIC "-//W3C//DTD SVG 1.1//EN" "http://www.w3.org/Graphics/SVG/1.1/DTD/svg11.dtd">
<svg version="1.1" id="Layer_1" xmlns="http://www.w3.org/2000/svg" xmlns:xlink="http://www.w3.org/1999/xlink" x="0px" y="0px"
	 width="15px" height="15px" viewBox="0 0 15 15" enable-background="new 0 0 15 15" xml:space="preserve">
<g>
	<g>
		<rect fill="none" width="15" height="15"/>
	</g>
	<g>
		<path d="M11.7,4.5c-0.662,0-1.2-0.538-1.2-1.199c0-0.662,0.538-1.2,1.2-1.2c0.661,0,1.199,0.538,1.199,1.2
			C12.899,3.961,12.361,4.5,11.7,4.5L11.7,4.5z M11.7,2.7C11.369,2.7,11.1,2.969,11.1,3.3c0,0.331,0.27,0.6,0.601,0.6
			c0.33,0,0.6-0.269,0.6-0.6C12.3,2.969,12.03,2.7,11.7,2.7L11.7,2.7z"/>
	</g>
	<g>
		<path d="M6.679,14.399c-0.232,0-0.45-0.09-0.613-0.254L0.854,8.934C0.69,8.77,0.6,8.552,0.6,8.32c0-0.232,0.091-0.449,0.255-0.613
			l6.819-6.818C7.94,0.622,8.312,0.6,8.702,0.6h0.12l0.065,0l4.462,0c0.579,0,1.051,0.471,1.051,1.05c0,2.891,0,4.018-0.063,4.463
			h0.062c0.002,0.501,0.004,0.921-0.288,1.213l-6.819,6.819C7.128,14.31,6.911,14.399,6.679,14.399L6.679,14.399z M8.702,1.2
			c-0.259,0-0.5,0.009-0.605,0.113L1.278,8.131C1.228,8.182,1.2,8.249,1.2,8.32s0.028,0.139,0.079,0.189l5.212,5.212
			c0.101,0.1,0.278,0.101,0.378-0.001l6.819-6.818c0.114-0.115,0.113-0.396,0.112-0.692l0.001-4.56c0-0.248-0.202-0.45-0.451-0.45
			l-4.462,0L8.702,1.2L8.702,1.2z"/>
	</g>
</g>
</svg>
