<?xml version="1.0" encoding="utf-8"?>
<!-- Generator: Adobe Illustrator 14.0.0, SVG Export Plug-In . SVG Version: 6.00 Build 43363)  -->
<!DOCTYPE svg PUBLIC "-//W3C//DTD SVG 1.1//EN" "http://www.w3.org/Graphics/SVG/1.1/DTD/svg11.dtd">
<svg version="1.1"
	 id="svg1931" xmlns:inkscape="http://www.inkscape.org/namespaces/inkscape" xmlns:sodipodi="http://inkscape.sourceforge.net/DTD/sodipodi-0.dtd" xmlns:cc="http://web.resource.org/cc/" xmlns:dc="http://purl.org/dc/elements/1.1/" xmlns:svg="http://www.w3.org/2000/svg" xmlns:rdf="http://www.w3.org/1999/02/22-rdf-syntax-ns#"
	 xmlns="http://www.w3.org/2000/svg" xmlns:xlink="http://www.w3.org/1999/xlink" x="0px" y="0px" width="11px" height="21px"
	 viewBox="-0.785 -1.5 11 21" enable-background="new -0.785 -1.5 11 21" xml:space="preserve">
<g id="g1941">
	<path id="path1943" fill="#B4B4B4" d="M2.019-0.947C1.04-0.593-2.196,1.901-0.084,10.158c2.226,8.698,6.604,9.571,7.616,9.302
		l-1.543-5.727c-0.839,0.206-1.242-0.623-1.918-2.372c-0.447-1.157-0.88-2.618-1.111-4.12C2.798,6.187,2.729,5.137,3.607,4.922
		L2.019-0.947z"/>
	<path id="path1945" fill="#B4B4B4" d="M9.698,18.941c0.389-0.096,0.585-0.465,0.495-0.804l0.002-0.003c0,0-1.206-4.463-1.207-4.466
		c-0.095-0.354-0.472-0.559-0.838-0.47l-1.702,0.417l1.548,5.742c0,0,1.7-0.414,1.701-0.416L9.698,18.941z"/>
	<path id="path1947" fill="#B4B4B4" d="M5.775,4.392C6.163,4.296,6.36,3.926,6.27,3.588l0.001-0.003c0,0-1.241-4.591-1.242-4.594
		c-0.095-0.354-0.472-0.56-0.837-0.47L2.489-1.062l1.583,5.87c0,0,1.7-0.413,1.701-0.415L5.775,4.392z"/>
</g>
</svg>
