<?xml version="1.0" encoding="utf-8"?>
<!-- Generator: Adobe Illustrator 14.0.0, SVG Export Plug-In . SVG Version: 6.00 Build 43363)  -->
<!DOCTYPE svg PUBLIC "-//W3C//DTD SVG 1.1//EN" "http://www.w3.org/Graphics/SVG/1.1/DTD/svg11.dtd">
<svg version="1.1" id="Capa_1" xmlns="http://www.w3.org/2000/svg" xmlns:xlink="http://www.w3.org/1999/xlink" x="0px" y="0px"
	 width="51px" height="51px" viewBox="0 0 51 51" enable-background="new 0 0 51 51" xml:space="preserve">
<g>
	<path fill="#BF2026" d="M51,25.5C51,39.583,39.582,51,25.5,51C11.417,51,0,39.583,0,25.5C0,11.417,11.417,0,25.5,0
		C39.582,0,51,11.417,51,25.5"/>
	<path fill="#FFFFFF" d="M49.513,25.5c0,13.261-10.75,24.013-24.013,24.013c-13.262,0-24.013-10.752-24.013-24.013
		c0-13.263,10.751-24.013,24.013-24.013C38.763,1.487,49.513,12.237,49.513,25.5"/>
	<circle fill="none" stroke="#D0D2D3" stroke-width="0.3382" stroke-miterlimit="10" cx="25.5" cy="25.5" r="24.013"/>
	<path fill="#BF2026" d="M48.002,25.5c0,12.428-10.075,22.502-22.502,22.502c-12.427,0-22.504-10.074-22.504-22.502
		c0-12.428,10.077-22.504,22.504-22.504C37.927,2.996,48.002,13.072,48.002,25.5"/>
	<rect x="14.211" y="15.654" fill="none" width="22.564" height="22.564"/>
	<rect x="14.212" y="15.654" fill="none" width="22.565" height="22.565"/>
	<path fill="#FFFFFF" d="M29.763,25.464l6.345-6.345c0.931-0.931,0.931-2.454,0-3.384l-0.846-0.846c-0.93-0.932-2.453-0.932-3.384,0
		l-6.345,6.345l-6.346-6.346c-0.93-0.931-2.453-0.931-3.383,0l-0.847,0.846c-0.929,0.93-0.929,2.454,0,3.384l6.344,6.344
		l-6.344,6.346c-0.929,0.931-0.929,2.452,0,3.382l0.847,0.847c0.93,0.93,2.453,0.93,3.383,0l6.346-6.345l6.345,6.345
		c0.931,0.93,2.454,0.93,3.384,0l0.846-0.847c0.931-0.931,0.931-2.452,0-3.382L29.763,25.464z"/>
</g>
</svg>
