<?xml version="1.0" encoding="utf-8"?>
<!-- Generator: Adobe Illustrator 14.0.0, SVG Export Plug-In . SVG Version: 6.00 Build 43363)  -->
<!DOCTYPE svg PUBLIC "-//W3C//DTD SVG 1.1//EN" "http://www.w3.org/Graphics/SVG/1.1/DTD/svg11.dtd">
<svg version="1.1"
	 id="Capa_1" xmlns:cc="http://creativecommons.org/ns#" xmlns:dc="http://purl.org/dc/elements/1.1/" xmlns:rdf="http://www.w3.org/1999/02/22-rdf-syntax-ns#"
	 xmlns="http://www.w3.org/2000/svg" xmlns:xlink="http://www.w3.org/1999/xlink" x="0px" y="0px" width="13px" height="13px"
	 viewBox="2.5 2.5 13 13" enable-background="new 2.5 2.5 13 13" xml:space="preserve">
<g transform="translate(0 -1028.4)">
	<g>
		<path fill="#E67E22" d="M3.8,1030.9c-0.718,0-1.3,0.582-1.3,1.3v10.4c0,0.719,0.582,1.301,1.3,1.301h10.4
			c0.719,0,1.3-0.582,1.3-1.301v-10.4c0-0.718-0.581-1.3-1.3-1.3H3.8z"/>
		<path fill="#ECF0F1" d="M4.45,1032.85v1.495c4.188,0,7.583,3.38,7.583,7.604h1.517C13.55,1036.88,9.477,1032.85,4.45,1032.85z
			 M4.45,1035.839v1.561c2.513,0,4.55,2.014,4.55,4.549h1.517C10.517,1038.57,7.8,1035.839,4.45,1035.839z M5.777,1039.285
			c-0.733,0-1.327,0.584-1.327,1.301c0,0.715,0.593,1.363,1.327,1.363c0.734,0,1.327-0.648,1.327-1.363
			C7.104,1039.869,6.511,1039.285,5.777,1039.285z"/>
	</g>
</g>
</svg>
