<?xml version="1.0" encoding="utf-8"?>
<!-- Generator: Adobe Illustrator 14.0.0, SVG Export Plug-In . SVG Version: 6.00 Build 43363)  -->
<!DOCTYPE svg PUBLIC "-//W3C//DTD SVG 1.1//EN" "http://www.w3.org/Graphics/SVG/1.1/DTD/svg11.dtd">
<svg version="1.1" id="Layer_1" xmlns="http://www.w3.org/2000/svg" xmlns:xlink="http://www.w3.org/1999/xlink" x="0px" y="0px"
	 width="68px" height="22.043px" viewBox="0 0 68 22.043" enable-background="new 0 0 68 22.043" xml:space="preserve">
<g>
	<path fill="#FFFFFF" d="M0.004,11.734c2.747,0,5.33,1.07,7.271,3.015c1.944,1.941,3.015,4.533,3.015,7.289h4.233
		c0-8.006-6.516-14.521-14.521-14.521L0.004,11.734L0.004,11.734z M0.01,4.26c9.791,0,17.757,7.978,17.757,17.784H22
		c0-12.13-9.865-22-21.99-22V4.26z M5.864,19.098c0,1.613-1.313,2.923-2.932,2.923C1.313,22.021,0,20.711,0,19.098
		s1.313-2.922,2.933-2.922C4.551,16.176,5.864,17.484,5.864,19.098z"/>
	<rect x="0.01" y="0.043" fill="none" width="21.99" height="22"/>
</g>
<g>
	<g>
		<g>
			<polygon fill="#FFFFFF" points="23,18.084 23.338,18.084 30.823,11.043 23.214,3.889 23,3.889 			"/>
			<polygon fill="#FFFFFF" points="45,18.084 45,3.889 44.766,3.889 36.984,11.043 44.639,18.084 			"/>
			<polygon fill="#FFFFFF" points="33.871,13.911 31.423,11.606 24.535,18.084 24.412,18.198 43.551,18.198 43.424,18.084 
				36.378,11.604 			"/>
			<polygon fill="#FFFFFF" points="31.423,10.481 31.723,10.762 32.021,11.043 33.875,12.79 35.771,11.043 36.076,10.764 
				36.378,10.485 43.551,3.889 24.412,3.889 			"/>
		</g>
		<rect x="23" y="0.044" fill="none" width="22" height="22"/>
	</g>
	<rect x="23" y="0.044" fill="none" width="22" height="22"/>
</g>
<g>
	<g>
		<rect x="50" y="0.044" fill="#FFFFFF" width="14" height="6"/>
		<path fill="#FFFFFF" d="M65,13.043H49v2H47.1c0,0-1.101,0-1.101-1.11V8.155c0,0,0-1.111,1.101-1.111h19.8
			c1.1,0,1.1,1.111,1.1,1.111v5.778c0,1.11-1.1,1.11-1.1,1.11H65V13.043z M49.51,10.044c0,0-0.51,0-0.51,0.5s0.51,0.5,0.51,0.5
			h14.98c0,0,0.51,0,0.51-0.5s-0.51-0.5-0.51-0.5H49.51L49.51,10.044z"/>
		<path fill="#FFFFFF" d="M50,14.043v8h14v-8H50z M62,19.043H52v-1h10V19.043z M62,17.043H52v-1h10V17.043z"/>
		<title></title>
	</g>
	<rect x="46" y="0.044" fill="none" width="22" height="22"/>
</g>
</svg>
