<?xml version="1.0" encoding="utf-8"?>
<!-- Generator: Adobe Illustrator 16.0.0, SVG Export Plug-In . SVG Version: 6.00 Build 0)  -->
<!DOCTYPE svg PUBLIC "-//W3C//DTD SVG 1.1//EN" "http://www.w3.org/Graphics/SVG/1.1/DTD/svg11.dtd">
<svg version="1.1" id="Capa_1" xmlns="http://www.w3.org/2000/svg" xmlns:xlink="http://www.w3.org/1999/xlink" x="0px" y="0px"
	 width="57px" height="24px" viewBox="0 0 57 24" enable-background="new 0 0 57 24" xml:space="preserve">
<g>
	<g>
		<g>
			<path fill="#454040" d="M0,4c0-0.943,0.9-1.714,2-1.714h24c1.1,0,2,0.771,2,1.714s-0.9,1.714-2,1.714H2C0.9,5.714,0,4.942,0,4z"
				/>
		</g>
		<g>
			<path fill="#454040" d="M0,11.999c0-0.942,0.9-1.713,2-1.713h24c1.1,0,2,0.771,2,1.713c0,0.942-0.9,1.713-2,1.713H2
				C0.9,13.712,0,12.94,0,11.999z"/>
		</g>
		<g>
			<path fill="#454040" d="M0,19.999c0-0.942,0.9-1.714,2-1.714h24c1.1,0,2,0.771,2,1.714s-0.9,1.714-2,1.714H2
				C0.9,21.713,0,20.941,0,19.999z"/>
		</g>
	</g>
</g>
<rect x="29" y="-0.001" fill="none" width="28" height="23.999"/>
<g>
	<path fill="#454040" d="M39.725,2.765c3.147,0,5.698,2.524,5.698,5.64c0,3.119-2.551,5.646-5.698,5.646
		c-3.145,0-5.695-2.527-5.695-5.646C34.029,5.29,36.58,2.765,39.725,2.765 M39.725,0.001c-4.679,0-8.485,3.772-8.485,8.404
		c0,4.637,3.807,8.407,8.485,8.407c4.681,0,8.488-3.77,8.488-8.407C48.213,3.773,44.405,0.001,39.725,0.001L39.725,0.001z"/>
	<path fill="#454040" d="M52.922,24.01c-0.597,0-1.19-0.224-1.645-0.675l-4.126-4.091c-0.91-0.895-0.91-2.354,0-3.256
		c0.908-0.898,2.378-0.898,3.286,0l4.129,4.09c0.908,0.899,0.908,2.355,0,3.257C54.112,23.786,53.518,24.01,52.922,24.01z"/>
	<polygon fill="#454040" points="46.589,17.385 44.319,15.142 46.295,13.186 48.561,15.434 	"/>
</g>
</svg>
