<svg xmlns="http://www.w3.org/2000/svg" width="100" height="40" viewBox="0 0 100 40"><path fill-rule="evenodd" clip-rule="evenodd" fill="#E9B62B" d="M25.946 10.218c.742.506 1.465.947 2.349.9.097-.016.276.012.36.152.037.088.124.243-.057.449-.715.737-1.84 1.283-3.049 1.501.375.812.799 1.545 1.582 1.947.096.05.249.156.229.319 0 .091-.005.27-.262.361-.987.288-2.236.19-3.4-.228-.067.891-.083 1.738.402 2.465.059.084.132.254.044.398a.37.37 0 0 1-.418.181c-1.006-.253-2.017-.942-2.817-1.89-.519.731-.943 1.458-.896 2.335.013.101-.01.279-.157.368-.084.034-.249.121-.458-.063-.736-.713-1.27-1.829-1.49-3.039-.81.38-1.547.802-1.944 1.575-.054.095-.16.235-.329.235-.083 0-.267-.03-.359-.263-.282-1.004-.184-2.237.237-3.399-.894-.066-1.736-.083-2.478.402-.096.061-.254.13-.397.046a.374.374 0 0 1-.181-.423c.252-1.006.955-2.019 1.902-2.815-.739-.522-1.468-.945-2.349-.898-.108.012-.276-.01-.362-.153-.052-.089-.122-.261.057-.464.714-.738 1.83-1.267 3.047-1.489-.372-.806-.793-1.547-1.583-1.943-.091-.056-.241-.161-.229-.328 0-.088.012-.266.265-.367.991-.28 2.239-.18 3.397.23.074-.881.088-1.742-.398-2.476-.062-.087-.13-.243-.046-.389.046-.086.159-.231.424-.183.991.255 2.018.957 2.818 1.901.517-.739.938-1.459.895-2.35-.017-.108.012-.279.157-.363.082-.047.25-.119.459.062.741.716 1.268 1.828 1.487 3.048.81-.372 1.554-.795 1.946-1.583.048-.097.162-.243.328-.231.085 0 .264.012.359.265.282.993.185 2.226-.24 3.393.896.085 1.739.092 2.481-.403.085-.049.251-.123.394-.036.074.05.229.158.185.425-.254.99-.956 2.021-1.905 2.818"/><path fill="#244076" d="M3.478 2.05C1.752 6.195.715 10.859 1.061 16.04 2.098 29.686 11.769 40.394 22.48 39.53c6.045-.344 11.052-4.318 14.336-10.19.69-1.383.343-2.074-.691-.865-14.163 14.857-31.608-.689-32.299-18.308-.172-2.762 0-5.526.344-8.116.173-1.21-.344-.865-.692-.001"/><path fill="#244076" d="M17.642 29.859c-1.553-.692-1.901-1.728.519-1.728 13.471 0 19.172-15.2 18.998-26.771 0-1.037.347-1.383.864-.174.69 2.072 1.039 4.318 1.209 6.738.865 12.262-5.7 22.625-14.853 23.316-2.418.173-4.664-.346-6.737-1.381M53.505 4.153h-.912a.332.332 0 0 0-.333.333l.001.045v7.151c0 .902-.131 1.509-.409 1.871-.361.475-.984.737-1.837.737-.903 0-1.477-.279-1.789-.64-.328-.378-.409-1.377-.409-2.198v-6.93a.333.333 0 0 0-.333-.368h-.924a.334.334 0 0 0-.335.333l.002.029-.002.001v7.528c0 1.181.065 1.493.362 2.018.573 1.033 1.705 1.575 3.413 1.575 1.738 0 2.673-.624 3.248-1.329.507-.623.59-.968.59-2.395V4.487a.335.335 0 0 0-.333-.334m38.412 10.899a.331.331 0 0 0-.039-.449v-.001c-.399-.363-.424-.841-.424-1.804 0-1.197.065-1.903.065-2.495 0-.804-.032-1.082-.164-1.442-.313-.87-1.181-1.313-2.378-1.313-1.665 0-2.902.779-3.146.915a.332.332 0 0 0-.114.463l.309.483a.334.334 0 0 0 .47.111h.002c.652-.425 1.484-.741 2.25-.741 1.148 0 1.279.709 1.279 1.919 0 0-.377-.017-.574-.017-2.657 0-4.182.708-4.182 2.61 0 1.575 1.017 2.412 2.655 2.412 1.428 0 2.117-.822 2.33-1.083.167.484.428.827.827 1.049a.336.336 0 0 0 .437-.086h.001l.002-.002.394-.529zm-1.972-1.531c-.377.655-1.033 1.083-1.723 1.083-.837 0-1.296-.526-1.296-1.428 0-1.445 1.444-1.478 2.575-1.478.132 0 .263.017.492.033l-.048 1.79zM60.028 8.147a.332.332 0 0 0-.301-.437h-.001c-.997 0-1.659.475-2.315 1.426v-.145c0-.34-.071-.714-.184-1.022a.332.332 0 0 0-.355-.24h-.52a.332.332 0 0 0-.368.33l-.003 7.065c0 .185.149.333.335.333h.843a.334.334 0 0 0 .331-.331l.003-.002v-4.231c0-.902.683-1.654 1.912-1.654a.337.337 0 0 0 .322-.242l.301-.85zm7.858 6.721a.329.329 0 0 0-.052-.178c-.205-.321-.313-.826-.313-1.48V8.062l-.002-.003a.333.333 0 0 0-.334-.331h-.823a.333.333 0 0 0-.334.334l.001.001v5.163c-.345.721-1.133 1.296-1.87 1.296-.362 0-1.329-.058-1.329-1.806l-.003-4.658a.333.333 0 0 0-.334-.33h-.823a.332.332 0 0 0-.334.334v5.064c0 .591.05 1.05.197 1.379.344.754 1.164 1.229 2.215 1.229 1.017 0 1.821-.376 2.477-1.181.188.685.521 1.083.773 1.083a.336.336 0 0 0 .202-.068l.554-.436a.328.328 0 0 0 .132-.264m16.341 0a.329.329 0 0 0-.052-.178c-.206-.321-.314-.826-.314-1.48V8.062l-.001-.003a.333.333 0 0 0-.335-.331h-.822a.333.333 0 0 0-.334.334v5.164c-.344.721-1.132 1.296-1.868 1.296-.362 0-1.33-.058-1.33-1.806l-.004-4.658a.333.333 0 0 0-.332-.33h-.825a.332.332 0 0 0-.333.334v5.064c0 .591.049 1.05.196 1.379.344.754 1.164 1.229 2.215 1.229 1.019 0 1.822-.376 2.477-1.181.188.685.521 1.083.775 1.083a.333.333 0 0 0 .2-.068l.554-.436a.326.326 0 0 0 .133-.264m14.764-6.71a.332.332 0 0 0-.318-.43h-.958a.334.334 0 0 0-.321.245l-1.653 5.528-1.405-5.52a.332.332 0 0 0-.324-.253h-.922a.338.338 0 0 0-.333.333c-.006.154 2.317 7.419 2.317 7.419-.061.248-.226 1.016-.643 1.551-.322.41-.654.662-1.077.825a.041.041 0 0 0-.017.007h-.002a.333.333 0 0 0-.171.447l.197.403a.336.336 0 0 0 .382.173 3.308 3.308 0 0 0 1.26-.64c.576-.477 1.001-1.362 1.396-2.527-.001 0 2.591-7.554 2.592-7.561zm-22.317-.007l-.34-.413a.334.334 0 0 0-.431-.077v.001a2.116 2.116 0 0 1-1.106.318c-.36 0-.805-.131-1.23-.262a4.014 4.014 0 0 0-1.28-.182c-1.887 0-3.148 1.1-3.148 2.757 0 1.132.671 1.984 1.936 2.362-.936.345-1.609.672-1.609 1.445 0 .606.428 1.016 1.149 1.099.312.033.968.082 1.542.082 1.625 0 2.264.458 2.264 1.247 0 .868-.672 1.411-2.019 1.411-1.278 0-1.983-.458-1.983-1.313 0-.068.024-.248.024-.266a.333.333 0 0 0-.333-.334l-.801.045v.001a.333.333 0 0 0-.292.25v.001a2.54 2.54 0 0 0-.075.598c0 1.362 1.312 2.167 3.609 2.167 2.001 0 3.462-.887 3.462-2.659 0-1.279-.869-2.264-2.97-2.264h-1.264c-.395 0-.591-.164-.591-.41 0-.361.786-.737 1.297-.902 2.148 0 2.953-1.36 2.953-2.543 0-.525-.163-.968-.591-1.508.394.114.46.131.705.131.383 0 .701-.074 1.03-.264.005-.005.013-.008.019-.012l.003-.002a.328.328 0 0 0 .155-.281.33.33 0 0 0-.085-.223m-4.403 3.668c-1.47 0-1.64-1.203-1.64-1.552 0-1.144 1.043-1.549 1.625-1.549 1.342 0 1.687 1.141 1.687 1.549 0 1.294-1.175 1.552-1.672 1.552M50.306 20.46c.875 0 1.579.142 2.111.427.533.285.944.642 1.234 1.069.29.425.483.89.577 1.391.095.501.143.968.143 1.4v2.974c0 .443-.048.912-.143 1.407-.094.497-.287.958-.577 1.385s-.701.78-1.234 1.062c-.532.278-1.236.418-2.111.418h-3.623a.443.443 0 0 1-.324-.135.446.446 0 0 1-.133-.324V20.935a.457.457 0 0 1 .457-.474h3.623zm1.899 4.319c0-.337-.028-.643-.087-.917a1.648 1.648 0 0 0-.324-.705 1.502 1.502 0 0 0-.634-.449c-.263-.105-.6-.158-1.012-.158h-1.756v7.402h1.756c.412 0 .749-.052 1.012-.158.265-.104.476-.255.634-.45s.267-.431.324-.705c.059-.273.087-.579.087-.917v-2.943zm5.268-2.166c-.338 0-.624-.114-.855-.341s-.348-.509-.348-.846c0-.338.116-.62.348-.847.231-.227.518-.339.855-.339.326 0 .605.112.838.339.231.227.348.509.348.847 0 .337-.116.62-.348.846a1.157 1.157 0 0 1-.838.341m.584 1.075c.137 0 .25.046.34.142a.47.47 0 0 1 .136.332v7.356c0 .137-.046.25-.136.339a.438.438 0 0 1-.323.136h-1.203a.466.466 0 0 1-.333-.136.444.444 0 0 1-.142-.339v-7.356c0-.126.047-.237.142-.332a.452.452 0 0 1 .333-.142h1.186zm10.309.891c0 .085-.023.161-.071.229s-.103.129-.166.182a1.75 1.75 0 0 1-.515.222 2.458 2.458 0 0 1-.577.063 2.921 2.921 0 0 1-.41-.031c.222.41.332.843.332 1.297 0 .865-.322 1.561-.966 2.088a2.942 2.942 0 0 1-.996.554c-.379.126-.781.19-1.202.19-.433 0-.839-.064-1.218-.19a1.33 1.33 0 0 0-.198.158.37.37 0 0 0-.118.285c0 .133.081.252.244.312.164.057.335.087.515.087h1.249c.169 0 .361.003.577.007.217.006.436.023.656.056.224.031.444.084.665.157.222.074.428.18.617.316.633.433.949 1.138.949 1.96 0 .949-.411 1.694-1.233 2.138-.4.222-.831.384-1.289.452a8.29 8.29 0 0 1-1.211.104c-.475 0-.948-.038-1.423-.111a3.066 3.066 0 0 1-1.313-.555c-.634-.441-.949-1.068-.949-1.773v-.146c0-.043.006-.09.016-.143a.56.56 0 0 1 .159-.301.426.426 0 0 1 .315-.126h.822c.127.011.235.06.324.15.09.09.135.208.135.357 0 .643.612.963 1.835.963.211 0 .425-.008.642-.022.216-.016.419-.057.607-.119.454-.137.682-.412.682-.821a.515.515 0 0 0-.15-.403.972.972 0 0 0-.388-.254 2.054 2.054 0 0 0-.546-.11 7.818 7.818 0 0 0-.642-.023l-.68-.016c-.56 0-1.061-.03-1.462-.135a3.237 3.237 0 0 1-.847-.341 1.562 1.562 0 0 1-.499-.568 1.82 1.82 0 0 1-.182-.793c0-.654.284-1.17.854-1.551a2.67 2.67 0 0 1-.712-1.85c0-.907.317-1.619.949-2.137.274-.241.607-.424.998-.546.39-.12.806-.181 1.249-.181.399 0 .784.063 1.155.19h.016c.221.053.408.094.561.127a2.125 2.125 0 0 0 1.061-.049c.204-.063.424-.158.656-.284a.42.42 0 0 1 .284-.096c.148 0 .28.075.396.222l.349.538a.457.457 0 0 1 .094.271m-3.717 2.894c.217-.253.324-.568.324-.948 0-.391-.107-.712-.324-.965-.206-.254-.492-.381-.854-.381-.375 0-.663.127-.87.381-.207.242-.311.563-.311.965 0 .4.104.718.311.948.207.243.495.364.87.364.362 0 .648-.121.854-.364m5.805-4.86c-.337 0-.622-.114-.854-.341a1.138 1.138 0 0 1-.35-.846c0-.338.117-.62.35-.847.231-.227.517-.339.854-.339.327 0 .606.112.839.339.23.227.348.509.348.847 0 .337-.117.62-.348.846a1.159 1.159 0 0 1-.839.341m.586 1.075a.44.44 0 0 1 .339.142.47.47 0 0 1 .136.332v7.356c0 .137-.046.25-.136.339a.436.436 0 0 1-.324.136h-1.201a.466.466 0 0 1-.334-.136.448.448 0 0 1-.143-.339v-7.356a.46.46 0 0 1 .143-.332.453.453 0 0 1 .334-.142h1.186zm7.537 7.829a.46.46 0 0 1-.474.476h-1.062c-.568 0-1.051-.087-1.446-.261a2.371 2.371 0 0 1-.957-.744 3.114 3.114 0 0 1-.53-1.162 6.425 6.425 0 0 1-.165-1.503v-2.801h-.634a.461.461 0 0 1-.34-.133.445.445 0 0 1-.134-.325v-.823a.47.47 0 0 1 .134-.333.45.45 0 0 1 .34-.143h.634v-1.676c0-.126.044-.234.133-.324a.521.521 0 0 1 .341-.15h1.186c.128 0 .238.048.333.142a.452.452 0 0 1 .143.332v1.676h1.615c.125 0 .236.049.332.143a.497.497 0 0 1 .143.365v.776a.46.46 0 0 1-.475.474H76.08v2.769c0 .645.086 1.108.253 1.392.169.284.506.429 1.013.429h.76c.138 0 .251.046.34.142.09.094.134.206.134.332v.93zm8.245-.3a28.845 28.845 0 0 0-.268.697.437.437 0 0 1-.206.236c-.104.064-.212.085-.316.064a6.874 6.874 0 0 1-.682-.15 1.537 1.537 0 0 1-.6-.293 1.378 1.378 0 0 1-.316-.333c-.306.264-.656.442-1.052.531s-.768.134-1.116.134c-.959 0-1.674-.223-2.143-.672-.47-.448-.704-1.047-.704-1.796v-.111c0-.748.268-1.336.798-1.763.533-.428 1.312-.642 2.335-.642h1.407v-.301c0-.463-.079-.818-.236-1.066-.158-.248-.481-.373-.965-.373-.402 0-.756.056-1.062.166a4.224 4.224 0 0 0-.744.342.526.526 0 0 1-.236.062.435.435 0 0 1-.427-.268l-.332-.649a.462.462 0 0 1-.048-.206c0-.084.017-.16.048-.229a.364.364 0 0 1 .157-.166c.211-.148.547-.31 1.005-.482.459-.175 1.063-.261 1.812-.261.569 0 1.055.065 1.455.197s.729.335.981.609c.253.273.437.625.554 1.051.116.427.173.937.173 1.526v2.643c0 .19.041.365.12.522.078.157.208.294.386.411a.727.727 0 0 1 .184.183c.048.067.07.149.07.244a.582.582 0 0 1-.032.143m-2.864-2.562h-1.147c-.472 0-.798.084-.982.254a.837.837 0 0 0-.275.648v.109c0 .295.095.522.283.682.189.158.487.236.896.236.366 0 .662-.1.889-.301.223-.199.337-.512.337-.934v-.694zm6.704 1.994c.084 0 .15.052.197.157a.682.682 0 0 1 .071.27.888.888 0 0 1-.103.418c-.07.133-.13.272-.183.42a.411.411 0 0 1-.197.245.503.503 0 0 1-.34.056 7.324 7.324 0 0 1-.665-.15 1.526 1.526 0 0 1-.602-.293 1.291 1.291 0 0 1-.157-.135 1.49 1.49 0 0 1-.27-.38 3.03 3.03 0 0 1-.253-.688c-.074-.283-.11-.643-.11-1.075V21.03c0-.126.044-.236.134-.323a.52.52 0 0 1 .341-.151h1.187c.126 0 .237.044.332.134s.143.203.143.34v8.685c0 .158.019.293.055.403.038.111.082.203.135.277a.847.847 0 0 0 .158.173.43.43 0 0 0 .127.081"/></svg>