<?xml version="1.0" encoding="utf-8"?>
<!-- Generator: Adobe Illustrator 16.0.0, SVG Export Plug-In . SVG Version: 6.00 Build 0)  -->
<!DOCTYPE svg PUBLIC "-//W3C//DTD SVG 1.1//EN" "http://www.w3.org/Graphics/SVG/1.1/DTD/svg11.dtd">
<svg version="1.1" id="Layer_1" xmlns="http://www.w3.org/2000/svg" xmlns:xlink="http://www.w3.org/1999/xlink" x="0px" y="0px"
	 width="100px" height="40px" viewBox="0 0 100 40" enable-background="new 0 0 100 40" xml:space="preserve">
<path fill-rule="evenodd" clip-rule="evenodd" fill="#E9B62B" d="M25.946,10.218c0.742,0.506,1.465,0.947,2.349,0.9
	c0.097-0.016,0.276,0.012,0.36,0.152c0.037,0.088,0.124,0.243-0.057,0.449c-0.715,0.737-1.84,1.283-3.049,1.501
	c0.375,0.812,0.799,1.545,1.582,1.947c0.096,0.05,0.249,0.156,0.229,0.319c0,0.091-0.005,0.27-0.262,0.361
	c-0.987,0.288-2.236,0.19-3.4-0.228c-0.067,0.891-0.083,1.738,0.402,2.465c0.059,0.084,0.132,0.254,0.044,0.398
	c-0.044,0.072-0.155,0.229-0.418,0.181c-1.006-0.253-2.017-0.942-2.817-1.89c-0.519,0.731-0.943,1.458-0.896,2.335
	c0.013,0.101-0.01,0.279-0.157,0.368c-0.084,0.034-0.249,0.121-0.458-0.063c-0.736-0.713-1.27-1.829-1.49-3.039
	c-0.81,0.38-1.547,0.802-1.944,1.575c-0.054,0.095-0.16,0.235-0.329,0.235c-0.083,0-0.267-0.03-0.359-0.263
	c-0.282-1.004-0.184-2.237,0.237-3.399c-0.894-0.066-1.736-0.083-2.478,0.402c-0.096,0.061-0.254,0.13-0.397,0.046
	c-0.071-0.046-0.232-0.156-0.181-0.423c0.252-1.006,0.955-2.019,1.902-2.815c-0.739-0.522-1.468-0.945-2.349-0.898
	c-0.108,0.012-0.276-0.01-0.362-0.153c-0.052-0.089-0.122-0.261,0.057-0.464c0.714-0.738,1.83-1.267,3.047-1.489
	c-0.372-0.806-0.793-1.547-1.583-1.943c-0.091-0.056-0.241-0.161-0.229-0.328c0-0.088,0.012-0.266,0.265-0.367
	c0.991-0.28,2.239-0.18,3.397,0.23c0.074-0.881,0.088-1.742-0.398-2.476c-0.062-0.087-0.13-0.243-0.046-0.389
	c0.046-0.086,0.159-0.231,0.424-0.183c0.991,0.255,2.018,0.957,2.818,1.901c0.517-0.739,0.938-1.459,0.895-2.35
	c-0.017-0.108,0.012-0.279,0.157-0.363c0.082-0.047,0.25-0.119,0.459,0.062c0.741,0.716,1.268,1.828,1.487,3.048
	c0.81-0.372,1.554-0.795,1.946-1.583c0.048-0.097,0.162-0.243,0.328-0.231c0.085,0,0.264,0.012,0.359,0.265
	c0.282,0.993,0.185,2.226-0.24,3.393c0.896,0.085,1.739,0.092,2.481-0.403c0.085-0.049,0.251-0.123,0.394-0.036
	c0.074,0.05,0.229,0.158,0.185,0.425C27.597,8.39,26.895,9.421,25.946,10.218"/>
<path fill="#244076" d="M3.478,2.05c-1.726,4.145-2.763,8.809-2.417,13.99c1.037,13.646,10.708,24.354,21.419,23.49
	c6.045-0.344,11.052-4.318,14.336-10.19c0.69-1.383,0.343-2.074-0.691-0.865C21.962,43.332,4.517,27.786,3.826,10.167
	c-0.172-2.762,0-5.526,0.344-8.116C4.343,0.841,3.826,1.186,3.478,2.05"/>
<path fill="#244076" d="M17.642,29.859c-1.553-0.692-1.901-1.728,0.519-1.728c13.471,0,19.172-15.2,18.998-26.771
	c0-1.037,0.347-1.383,0.864-0.174c0.69,2.072,1.039,4.318,1.209,6.738c0.865,12.262-5.7,22.625-14.853,23.316
	C21.961,31.413,19.715,30.894,17.642,29.859"/>
<g>
	<path fill="#244076" d="M53.505,4.153L53.505,4.153h-0.912c-0.186,0-0.333,0.149-0.333,0.333c0,0.014,0,0.03,0.001,0.045v7.151
		c0,0.902-0.131,1.509-0.409,1.871c-0.361,0.475-0.984,0.737-1.837,0.737c-0.903,0-1.477-0.279-1.789-0.64
		c-0.328-0.378-0.409-1.377-0.409-2.198V4.522c0.001-0.012,0.001-0.022,0.001-0.035c0-0.184-0.149-0.333-0.334-0.333H46.56
		c-0.185,0-0.335,0.149-0.335,0.333c0,0.01,0.002,0.02,0.002,0.029l-0.002,0.001v7.528c0,1.181,0.065,1.493,0.362,2.018
		c0.573,1.033,1.705,1.575,3.413,1.575c1.738,0,2.673-0.624,3.248-1.329c0.507-0.623,0.59-0.968,0.59-2.395V4.487
		C53.837,4.303,53.688,4.153,53.505,4.153"/>
	<path fill="#244076" d="M91.917,15.052L91.917,15.052c0.044-0.057,0.07-0.127,0.07-0.204c0-0.098-0.042-0.186-0.109-0.245v-0.001
		c-0.399-0.363-0.424-0.841-0.424-1.804c0-1.197,0.065-1.903,0.065-2.495c0-0.804-0.032-1.082-0.164-1.442
		c-0.313-0.87-1.181-1.313-2.378-1.313c-1.665,0-2.902,0.779-3.146,0.915c-0.101,0.056-0.165,0.165-0.165,0.287
		c0,0.064,0.019,0.125,0.051,0.176l0.309,0.483c0.058,0.099,0.165,0.166,0.288,0.166c0.067,0,0.13-0.02,0.182-0.055h0.002
		c0.652-0.425,1.484-0.741,2.25-0.741c1.148,0,1.279,0.709,1.279,1.919c0,0-0.377-0.017-0.574-0.017
		c-2.657,0-4.182,0.708-4.182,2.61c0,1.575,1.017,2.412,2.655,2.412c1.428,0,2.117-0.822,2.33-1.083
		c0.167,0.484,0.428,0.827,0.827,1.049c0.05,0.03,0.107,0.047,0.17,0.047c0.108,0,0.205-0.052,0.267-0.133l0.001,0
		c0,0,0-0.001,0.002-0.002L91.917,15.052z M89.945,13.521c-0.377,0.655-1.033,1.083-1.723,1.083c-0.837,0-1.296-0.526-1.296-1.428
		c0-1.445,1.444-1.478,2.575-1.478c0.132,0,0.263,0.017,0.492,0.033L89.945,13.521z"/>
	<path fill="#244076" d="M60.028,8.147L60.028,8.147c0.011-0.033,0.016-0.067,0.016-0.104c0-0.18-0.141-0.326-0.317-0.333h-0.001
		c-0.997,0-1.659,0.475-2.315,1.426V8.991c0-0.34-0.071-0.714-0.184-1.022c-0.039-0.14-0.167-0.243-0.32-0.243
		c-0.011,0-0.023,0.001-0.035,0.003h-0.52c-0.012-0.002-0.022-0.003-0.036-0.003c-0.184,0-0.332,0.149-0.332,0.333
		c0,0-0.003,7.055-0.003,7.065c0,0.185,0.149,0.333,0.335,0.333h0.843c0.181,0,0.329-0.149,0.331-0.331l0.003-0.002v-4.231
		c0-0.902,0.683-1.654,1.912-1.654c0.152,0,0.282-0.103,0.322-0.242L60.028,8.147z"/>
	<path fill="#244076" d="M67.886,14.868c0-0.065-0.019-0.127-0.052-0.178v0c-0.205-0.321-0.313-0.826-0.313-1.48V8.062l-0.002-0.003
		c-0.001-0.183-0.15-0.331-0.334-0.331h-0.823c-0.185,0-0.334,0.149-0.334,0.334l0.001,0.001v5.163
		c-0.345,0.721-1.133,1.296-1.87,1.296c-0.362,0-1.329-0.058-1.329-1.806l-0.003-4.658c-0.002-0.183-0.15-0.33-0.334-0.33H61.67
		c-0.185,0-0.334,0.147-0.334,0.334v5.064c0,0.591,0.05,1.05,0.197,1.379c0.344,0.754,1.164,1.229,2.215,1.229
		c1.017,0,1.821-0.376,2.477-1.181c0.188,0.685,0.521,1.083,0.773,1.083c0.076,0,0.146-0.026,0.202-0.068l0.554-0.436
		C67.834,15.073,67.886,14.976,67.886,14.868"/>
	<path fill="#244076" d="M84.227,14.868c0-0.065-0.019-0.127-0.052-0.178v0c-0.206-0.321-0.314-0.826-0.314-1.48V8.062L83.86,8.059
		c-0.001-0.183-0.149-0.331-0.335-0.331h-0.822c-0.185,0-0.334,0.149-0.334,0.334v0.001v5.163c-0.344,0.721-1.132,1.296-1.868,1.296
		c-0.362,0-1.33-0.058-1.33-1.806l-0.004-4.658c-0.002-0.183-0.15-0.33-0.332-0.33H78.01c-0.184,0-0.333,0.147-0.333,0.334v5.064
		c0,0.591,0.049,1.05,0.196,1.379c0.344,0.754,1.164,1.229,2.215,1.229c1.019,0,1.822-0.376,2.477-1.181
		c0.188,0.685,0.521,1.083,0.775,1.083c0.075,0,0.144-0.026,0.2-0.068l0.554-0.436C84.175,15.073,84.227,14.976,84.227,14.868"/>
	<path fill="#244076" d="M98.991,8.158c0.011-0.03,0.016-0.062,0.016-0.097c0-0.184-0.148-0.333-0.334-0.333h-0.958
		c-0.153,0-0.282,0.104-0.321,0.245l-1.653,5.528l-1.405-5.52c-0.035-0.146-0.167-0.253-0.324-0.253c-0.005,0-0.009,0-0.012,0
		l-0.91,0c-0.184,0-0.325,0.149-0.333,0.333c-0.006,0.154,2.317,7.419,2.317,7.419c-0.061,0.248-0.226,1.016-0.643,1.551
		c-0.322,0.41-0.654,0.662-1.077,0.825c-0.006,0.001-0.011,0.003-0.017,0.007h-0.001h-0.001c-0.118,0.05-0.202,0.168-0.202,0.307
		c0,0.049,0.013,0.098,0.031,0.14l0.197,0.403c0.056,0.109,0.169,0.183,0.298,0.183c0.028,0,0.058-0.003,0.084-0.01
		c0.487-0.132,0.919-0.354,1.26-0.64c0.576-0.477,1.001-1.362,1.396-2.527C96.398,15.719,98.99,8.165,98.991,8.158L98.991,8.158z"/>
	<path fill="#244076" d="M76.674,8.151l-0.34-0.413c-0.062-0.076-0.155-0.124-0.26-0.124c-0.062,0-0.12,0.017-0.171,0.047v0.001
		c-0.355,0.208-0.705,0.318-1.106,0.318c-0.36,0-0.805-0.131-1.23-0.262c-0.492-0.148-0.838-0.182-1.28-0.182
		c-1.887,0-3.148,1.1-3.148,2.757c0,1.132,0.671,1.984,1.936,2.362c-0.936,0.345-1.609,0.672-1.609,1.445
		c0,0.606,0.428,1.016,1.149,1.099c0.312,0.033,0.968,0.082,1.542,0.082c1.625,0,2.264,0.458,2.264,1.247
		c0,0.868-0.672,1.411-2.019,1.411c-1.278,0-1.983-0.458-1.983-1.313c0-0.068,0.024-0.248,0.024-0.266
		c0-0.185-0.149-0.334-0.333-0.334c-0.005,0-0.801,0.045-0.801,0.045v0.001c-0.143,0.013-0.258,0.116-0.292,0.25v0.001
		c-0.041,0.167-0.075,0.375-0.075,0.598c0,1.362,1.312,2.167,3.609,2.167c2.001,0,3.462-0.887,3.462-2.659
		c0-1.279-0.869-2.264-2.97-2.264h-1.264c-0.395,0-0.591-0.164-0.591-0.41c0-0.361,0.786-0.737,1.297-0.902
		c2.148,0,2.953-1.36,2.953-2.543c0-0.525-0.163-0.968-0.591-1.508c0.394,0.114,0.46,0.131,0.705,0.131
		c0.383,0,0.701-0.074,1.03-0.264c0.005-0.005,0.013-0.008,0.019-0.012c0.001,0,0.003-0.002,0.003-0.002
		c0.095-0.059,0.155-0.163,0.155-0.281C76.759,8.287,76.727,8.21,76.674,8.151 M72.271,11.819c-1.47,0-1.64-1.203-1.64-1.552
		c0-1.144,1.043-1.549,1.625-1.549c1.342,0,1.687,1.141,1.687,1.549C73.943,11.561,72.768,11.819,72.271,11.819"/>
	<path fill="#244076" d="M50.306,20.46c0.875,0,1.579,0.142,2.111,0.427c0.533,0.285,0.944,0.642,1.234,1.069
		c0.29,0.425,0.483,0.89,0.577,1.391c0.095,0.501,0.143,0.968,0.143,1.4v2.974c0,0.443-0.048,0.912-0.143,1.407
		c-0.094,0.497-0.287,0.958-0.577,1.385s-0.701,0.78-1.234,1.062c-0.532,0.278-1.236,0.418-2.111,0.418H47.3h-0.6h-0.017
		c-0.125,0-0.234-0.045-0.324-0.135c-0.089-0.091-0.133-0.198-0.133-0.324v-0.633v-9.349v-0.617c0-0.138,0.044-0.25,0.133-0.339
		c0.09-0.09,0.199-0.135,0.324-0.135H46.7h0.6H50.306z M52.205,24.779c0-0.337-0.028-0.643-0.087-0.917
		c-0.058-0.274-0.166-0.509-0.324-0.705c-0.158-0.194-0.369-0.346-0.634-0.449c-0.263-0.105-0.6-0.158-1.012-0.158h-1.756v7.402
		h1.756c0.412,0,0.749-0.052,1.012-0.158c0.265-0.104,0.476-0.255,0.634-0.45s0.267-0.431,0.324-0.705
		c0.059-0.273,0.087-0.579,0.087-0.917V24.779z"/>
	<path fill="#244076" d="M57.473,22.613c-0.338,0-0.624-0.114-0.855-0.341s-0.348-0.509-0.348-0.846c0-0.338,0.116-0.62,0.348-0.847
		c0.231-0.227,0.518-0.339,0.855-0.339c0.326,0,0.605,0.112,0.838,0.339c0.231,0.227,0.348,0.509,0.348,0.847
		c0,0.337-0.116,0.62-0.348,0.846C58.079,22.499,57.799,22.613,57.473,22.613 M58.057,23.688c0.137,0,0.25,0.046,0.34,0.142
		c0.09,0.095,0.136,0.206,0.136,0.332v7.356c0,0.137-0.046,0.25-0.136,0.339c-0.09,0.091-0.198,0.136-0.323,0.136h-1.188h-0.015
		c-0.127,0-0.238-0.045-0.333-0.136c-0.095-0.089-0.142-0.202-0.142-0.339v-7.356c0-0.126,0.047-0.237,0.142-0.332
		c0.095-0.096,0.206-0.142,0.333-0.142H58.057z"/>
	<path fill="#244076" d="M68.366,24.579c0,0.085-0.023,0.161-0.071,0.229s-0.103,0.129-0.166,0.182
		c-0.169,0.105-0.34,0.18-0.515,0.222c-0.174,0.042-0.366,0.063-0.577,0.063c-0.073,0-0.145-0.003-0.213-0.008
		c-0.069-0.006-0.135-0.014-0.197-0.023c0.222,0.41,0.332,0.843,0.332,1.297c0,0.865-0.322,1.561-0.966,2.088
		c-0.283,0.243-0.616,0.427-0.996,0.554c-0.379,0.126-0.781,0.19-1.202,0.19c-0.433,0-0.839-0.064-1.218-0.19
		c-0.053,0.032-0.119,0.085-0.198,0.158c-0.08,0.074-0.118,0.169-0.118,0.285c0,0.133,0.081,0.252,0.244,0.312
		c0.164,0.057,0.335,0.087,0.515,0.087h1.249c0.169,0,0.361,0.003,0.577,0.007c0.217,0.006,0.436,0.023,0.656,0.056
		c0.224,0.031,0.444,0.084,0.665,0.157c0.222,0.074,0.428,0.18,0.617,0.316c0.633,0.433,0.949,1.138,0.949,1.96
		c0,0.949-0.411,1.694-1.233,2.138c-0.4,0.222-0.831,0.384-1.289,0.452c-0.46,0.069-0.863,0.104-1.211,0.104
		c-0.475,0-0.948-0.038-1.423-0.111c-0.476-0.073-0.913-0.271-1.313-0.555c-0.634-0.441-0.949-1.068-0.949-1.773V32.63
		c0-0.043,0.006-0.09,0.016-0.143c0.021-0.115,0.074-0.216,0.159-0.301c0.084-0.084,0.188-0.126,0.315-0.126h0.822
		c0.127,0.011,0.235,0.06,0.324,0.15c0.09,0.09,0.135,0.208,0.135,0.357c0,0.643,0.612,0.963,1.835,0.963
		c0.211,0,0.425-0.008,0.642-0.022c0.216-0.016,0.419-0.057,0.607-0.119c0.454-0.137,0.682-0.412,0.682-0.821
		c0-0.202-0.051-0.292-0.15-0.403c-0.101-0.111-0.23-0.195-0.388-0.254c-0.158-0.057-0.341-0.095-0.546-0.11
		c-0.205-0.017-0.42-0.023-0.642-0.023l-0.68-0.016c-0.56,0-1.061-0.03-1.462-0.135c-0.4-0.105-0.669-0.235-0.847-0.341
		c-0.213-0.147-0.377-0.337-0.499-0.568c-0.121-0.232-0.182-0.539-0.182-0.793c0-0.654,0.284-1.17,0.854-1.551
		c-0.475-0.525-0.712-1.143-0.712-1.85c0-0.907,0.317-1.619,0.949-2.137c0.274-0.241,0.607-0.424,0.998-0.546
		c0.39-0.12,0.806-0.181,1.249-0.181c0.399,0,0.784,0.063,1.155,0.19h0.016c0.221,0.053,0.408,0.094,0.561,0.127
		c0.153,0.03,0.298,0.046,0.436,0.046c0.21,0,0.42-0.032,0.625-0.095c0.204-0.063,0.424-0.158,0.656-0.284
		c0.074-0.064,0.169-0.096,0.284-0.096c0.148,0,0.28,0.075,0.396,0.222l0.349,0.538C68.334,24.394,68.366,24.484,68.366,24.579
		 M64.649,27.473c0.217-0.253,0.324-0.568,0.324-0.948c0-0.391-0.107-0.712-0.324-0.965c-0.206-0.254-0.492-0.381-0.854-0.381
		c-0.375,0-0.663,0.127-0.87,0.381c-0.207,0.242-0.311,0.563-0.311,0.965c0,0.4,0.104,0.718,0.311,0.948
		c0.207,0.243,0.495,0.364,0.87,0.364C64.157,27.837,64.443,27.716,64.649,27.473"/>
	<path fill="#244076" d="M70.454,22.613c-0.337,0-0.622-0.114-0.854-0.341c-0.232-0.227-0.35-0.509-0.35-0.846
		c0-0.338,0.117-0.62,0.35-0.847c0.231-0.227,0.517-0.339,0.854-0.339c0.327,0,0.606,0.112,0.839,0.339
		c0.23,0.227,0.348,0.509,0.348,0.847c0,0.337-0.117,0.62-0.348,0.846C71.06,22.499,70.781,22.613,70.454,22.613 M71.04,23.688
		c0.137,0,0.25,0.046,0.339,0.142c0.09,0.095,0.136,0.206,0.136,0.332v7.356c0,0.137-0.046,0.25-0.136,0.339
		c-0.089,0.091-0.197,0.136-0.324,0.136h-1.186h-0.015c-0.128,0-0.239-0.045-0.334-0.136c-0.094-0.089-0.143-0.202-0.143-0.339
		v-7.356c0-0.126,0.049-0.237,0.143-0.332c0.095-0.096,0.206-0.142,0.334-0.142H71.04z"/>
	<path fill="#244076" d="M78.577,31.517c0,0.139-0.044,0.25-0.134,0.341c-0.089,0.089-0.202,0.135-0.34,0.135h-1.062
		c-0.568,0-1.051-0.087-1.446-0.261c-0.396-0.175-0.714-0.422-0.957-0.744c-0.243-0.32-0.42-0.709-0.53-1.162
		c-0.109-0.453-0.165-0.954-0.165-1.503v-2.801h-0.634c-0.138,0-0.25-0.044-0.34-0.133c-0.09-0.091-0.134-0.199-0.134-0.325v-0.823
		c0-0.127,0.044-0.237,0.134-0.333c0.09-0.094,0.202-0.143,0.34-0.143h0.016h0.618v-1.659v-0.017c0-0.126,0.044-0.234,0.133-0.324
		c0.091-0.09,0.204-0.14,0.341-0.15h1.186c0.128,0,0.238,0.048,0.333,0.142c0.096,0.095,0.143,0.206,0.143,0.332v1.676h1.599h0.016
		c0.125,0,0.236,0.049,0.332,0.143c0.095,0.096,0.143,0.217,0.143,0.365v0.759v0.017c0,0.137-0.046,0.25-0.136,0.341
		c-0.089,0.089-0.203,0.133-0.339,0.133h-1.614v2.769c0,0.645,0.086,1.108,0.253,1.392c0.169,0.284,0.506,0.429,1.013,0.429h0.76
		c0.138,0,0.251,0.046,0.34,0.142c0.09,0.094,0.134,0.206,0.134,0.332V31.517z"/>
	<path fill="#244076" d="M86.822,31.217c-0.116,0.295-0.193,0.493-0.229,0.593c-0.037,0.101-0.05,0.136-0.039,0.104
		c-0.033,0.096-0.101,0.175-0.206,0.236c-0.104,0.064-0.212,0.085-0.316,0.064c-0.201-0.032-0.427-0.082-0.682-0.15
		c-0.252-0.069-0.451-0.166-0.6-0.293c-0.105-0.074-0.211-0.185-0.316-0.333c-0.306,0.264-0.656,0.442-1.052,0.531
		s-0.768,0.134-1.116,0.134c-0.959,0-1.674-0.223-2.143-0.672c-0.47-0.448-0.704-1.047-0.704-1.796v-0.111
		c0-0.748,0.268-1.336,0.798-1.763c0.533-0.428,1.312-0.642,2.335-0.642h1.407v-0.301c0-0.463-0.079-0.818-0.236-1.066
		c-0.158-0.248-0.481-0.373-0.965-0.373c-0.402,0-0.756,0.056-1.062,0.166c-0.306,0.111-0.553,0.226-0.744,0.342
		c-0.084,0.042-0.162,0.062-0.236,0.062c-0.2,0-0.342-0.087-0.427-0.268l-0.332-0.649c-0.031-0.063-0.048-0.132-0.048-0.206
		c0-0.084,0.017-0.16,0.048-0.229c0.032-0.069,0.084-0.125,0.157-0.166c0.211-0.148,0.547-0.31,1.005-0.482
		c0.459-0.175,1.063-0.261,1.812-0.261c0.569,0,1.055,0.065,1.455,0.197s0.729,0.335,0.981,0.609
		c0.253,0.273,0.437,0.625,0.554,1.051c0.116,0.427,0.173,0.937,0.173,1.526v2.643c0,0.19,0.041,0.365,0.12,0.522
		c0.078,0.157,0.208,0.294,0.386,0.411c0.075,0.053,0.136,0.113,0.184,0.183c0.048,0.067,0.07,0.149,0.07,0.244
		C86.853,31.106,86.842,31.155,86.822,31.217 M83.958,28.655h-1.147c-0.472,0-0.798,0.084-0.982,0.254
		c-0.184,0.168-0.275,0.384-0.275,0.648v0.109c0,0.295,0.095,0.522,0.283,0.682c0.189,0.158,0.487,0.236,0.896,0.236
		c0.366,0,0.662-0.1,0.889-0.301c0.223-0.199,0.337-0.512,0.337-0.934V28.655z"/>
	<path fill="#244076" d="M90.662,30.649c0.084,0,0.15,0.052,0.197,0.157c0.047,0.104,0.071,0.195,0.071,0.27
		c0,0.146-0.034,0.287-0.103,0.418c-0.07,0.133-0.13,0.272-0.183,0.42c-0.031,0.105-0.097,0.187-0.197,0.245
		c-0.1,0.058-0.215,0.076-0.34,0.056c-0.19-0.032-0.411-0.082-0.665-0.15c-0.253-0.068-0.453-0.166-0.602-0.293
		c-0.02-0.011-0.073-0.056-0.157-0.135c-0.085-0.078-0.175-0.205-0.27-0.38c-0.094-0.173-0.18-0.402-0.253-0.688
		c-0.074-0.283-0.11-0.643-0.11-1.075v-8.447V21.03c0-0.126,0.044-0.236,0.134-0.323c0.09-0.09,0.204-0.141,0.341-0.151h1.187
		c0.126,0,0.237,0.044,0.332,0.134s0.143,0.203,0.143,0.34v8.685c0,0.158,0.019,0.293,0.055,0.403
		c0.038,0.111,0.082,0.203,0.135,0.277c0.053,0.073,0.105,0.132,0.158,0.173C90.586,30.611,90.629,30.638,90.662,30.649"/>
</g>
</svg>
