<svg xmlns="http://www.w3.org/2000/svg" width="203.676" height="36.489" viewBox="0 0 203.676 36.489"><path d="M38.903 33.348V9.903h4.036v2.455c.572-1.648 2.624-2.826 5.415-2.826 2.389 0 4.407.842 6.021 2.557 1.648 1.683 2.456 3.768 2.456 6.291 0 2.522-.807 4.608-2.456 6.323-1.614 1.682-3.632 2.522-6.021 2.522-2.792 0-4.843-1.177-5.415-2.825v8.947h-4.036zm12.479-11.269c.975-.975 1.446-2.22 1.446-3.699 0-1.48-.471-2.725-1.446-3.7-.942-.976-2.119-1.48-3.565-1.48-1.447 0-2.691.505-3.7 1.48-.976.976-1.48 2.22-1.48 3.7 0 1.479.504 2.725 1.48 3.699 1.009.976 2.253 1.48 3.7 1.48 1.446.001 2.623-.504 3.565-1.48zm7.504-3.699c0-2.523.908-4.676 2.69-6.392 1.783-1.716 3.969-2.59 6.56-2.59 2.59 0 4.776.874 6.559 2.59s2.691 3.868 2.691 6.392c0 2.522-.908 4.675-2.691 6.39-1.783 1.717-3.969 2.591-6.559 2.591-2.59 0-4.776-.874-6.56-2.591-1.782-1.715-2.69-3.868-2.69-6.39zm12.984 3.801c1.009-1.043 1.514-2.287 1.514-3.801 0-1.515-.504-2.759-1.514-3.768-1.009-1.043-2.253-1.548-3.733-1.548-1.514 0-2.758.505-3.768 1.548-.975 1.009-1.48 2.253-1.48 3.768 0 1.514.505 2.758 1.48 3.801 1.009 1.009 2.254 1.514 3.768 1.514 1.479-.001 2.724-.506 3.733-1.514zm8.345 4.674V9.903h4.003v2.522c.807-1.783 2.657-2.859 5.045-2.859.471 0 .875.034 1.211.101v3.902a8.623 8.623 0 0 0-1.682-.168c-2.792 0-4.574 1.749-4.574 4.541v8.913h-4.003zm14.264 0V13.569h-2.187V9.903h2.187V3.411h4.036v6.492h3.667v3.666h-3.667v13.286h-4.036zm22.572-14.497V9.903h4.036v16.952h-4.036V24.4c-.573 1.648-2.624 2.825-5.416 2.825-2.389 0-4.407-.841-6.055-2.522-1.615-1.715-2.422-3.801-2.422-6.323 0-2.523.807-4.608 2.422-6.291 1.648-1.715 3.666-2.557 6.055-2.557 2.792 0 4.844 1.178 5.416 2.826zm-1.211 9.721c1.009-.975 1.514-2.22 1.514-3.699 0-1.48-.504-2.725-1.514-3.7-.975-.976-2.22-1.48-3.667-1.48-1.445 0-2.624.505-3.599 1.48-.942.976-1.413 2.22-1.413 3.7 0 1.479.471 2.725 1.413 3.699.975.976 2.153 1.48 3.599 1.48 1.447.001 2.692-.504 3.667-1.48zm8.749 4.776V3.411h4.037v23.444h-4.037zm22.102 0V13.569h-2.187V9.903h2.187V3.411h4.035v6.492h3.667v3.666h-3.667v13.286h-4.035zm9.756-21.325c0-1.346 1.077-2.389 2.422-2.389a2.375 2.375 0 0 1 2.388 2.389 2.375 2.375 0 0 1-2.388 2.388c-1.345 0-2.422-1.043-2.422-2.388zm.405 21.325V9.903h4.036v16.952h-4.036zm7.602 6.493V9.903h4.036v2.455c.573-1.648 2.625-2.826 5.416-2.826 2.389 0 4.406.842 6.021 2.557 1.648 1.683 2.455 3.768 2.455 6.291 0 2.522-.807 4.608-2.455 6.323-1.614 1.682-3.632 2.522-6.021 2.522-2.791 0-4.843-1.177-5.416-2.825v8.947h-4.036zm12.48-11.269c.975-.975 1.446-2.22 1.446-3.699 0-1.48-.472-2.725-1.446-3.7-.941-.976-2.119-1.48-3.565-1.48s-2.691.505-3.7 1.48c-.975.976-1.479 2.22-1.479 3.7 0 1.479.505 2.725 1.479 3.699 1.009.976 2.254 1.48 3.7 1.48s2.623-.504 3.565-1.48zm7.504-3.699c0-2.523.908-4.676 2.691-6.392 1.782-1.716 3.969-2.59 6.56-2.59 2.59 0 4.775.874 6.56 2.59 1.781 1.716 2.689 3.868 2.689 6.392 0 2.522-.908 4.675-2.689 6.39-1.784 1.717-3.97 2.591-6.56 2.591-2.591 0-4.777-.874-6.56-2.591-1.783-1.715-2.691-3.868-2.691-6.39zm12.984 3.801c1.009-1.043 1.513-2.287 1.513-3.801 0-1.515-.504-2.759-1.513-3.768-1.01-1.043-2.254-1.548-3.733-1.548-1.515 0-2.759.505-3.769 1.548-.976 1.009-1.479 2.253-1.479 3.768 0 1.514.504 2.758 1.479 3.801 1.01 1.009 2.254 1.514 3.769 1.514 1.479-.001 2.723-.506 3.733-1.514z" fill="#005CB9"/><path fill="#FFDD40" d="M1 18.244c-.001.467.177.932.532 1.287.021.021.042.043.065.063l-.065-.066A1.811 1.811 0 0 1 1 18.244M11.422 7.825c-.466 0-.932.178-1.286.533l-8.537 8.535a1.82 1.82 0 0 1 2.504.064l1.286 1.287 7.317-7.316a1.822 1.822 0 0 0 0-2.571 1.809 1.809 0 0 0-1.284-.532M5.39 18.244l-1.287 1.287c-.354.355-.82.531-1.285.531-.438 0-.875-.156-1.221-.469l8.539 8.537a1.814 1.814 0 0 0 2.571 0 1.818 1.818 0 0 0 0-2.568L5.39 18.244m-3.791-1.351l-.067.064A1.813 1.813 0 0 0 1 18.244c0-.465.178-.93.532-1.283l.067-.068"/><path fill="#FFCC12" d="M2.817 16.426c-.437 0-.873.154-1.218.467l-.067.068A1.807 1.807 0 0 0 1 18.244c0 .467.178.928.532 1.283l.065.066c.346.313.783.469 1.221.469.465 0 .931-.176 1.285-.531l1.287-1.287-1.287-1.287a1.817 1.817 0 0 0-1.286-.531"/><path fill="#005CB9" d="M29.526 18.244c0 .467-.178.928-.533 1.283l-.064.066.064-.063c.356-.354.533-.819.533-1.286M19.104 7.825a1.818 1.818 0 0 0-1.285 3.104l7.317 7.316 1.286-1.287a1.816 1.816 0 0 1 1.286-.531c.437 0 .872.154 1.218.467L20.39 8.357a1.812 1.812 0 0 0-1.286-.532"/><path fill="#005CB9" d="M25.136 18.244l-7.317 7.318a1.814 1.814 0 0 0 0 2.568 1.813 1.813 0 0 0 2.571 0l8.54-8.537a1.817 1.817 0 0 1-1.222.469c-.464 0-.93-.176-1.284-.531l-1.288-1.287m3.791-1.351l.067.068c.355.354.533.818.533 1.283 0-.465-.178-.932-.533-1.287l-.067-.064"/><path fill="#015595" d="M27.708 16.426a1.82 1.82 0 0 0-1.286.531l-1.286 1.287 1.286 1.287c.355.355.821.531 1.286.531.437 0 .875-.156 1.221-.469l.064-.066c.355-.355.533-.816.533-1.283 0-.465-.178-.93-.533-1.283l-.067-.068a1.807 1.807 0 0 0-1.218-.467"/></svg>