<svg xmlns="http://www.w3.org/2000/svg" width="16" height="16" viewBox="0 0 16 16"><path fill="#FFDD40" d="M.25 8a.987.987 0 0 0 .324.732l-.035-.035A.986.986 0 0 1 .25 8m5.663-5.662a.986.986 0 0 0-.699.29L.576 7.265a.984.984 0 0 1 1.36.036L2.635 8l3.977-3.975a.99.99 0 1 0-.699-1.687"/><path fill="#FFDD40" d="M2.635 8l-.699.699a.986.986 0 0 1-1.362.033l4.64 4.64a.985.985 0 0 0 1.397 0 .99.99 0 0 0 0-1.396L2.635 8M.576 7.265a.985.985 0 0 0-.037.037l.037-.037"/><path fill="#FFCC12" d="M1.237 7.011a.984.984 0 0 0-.661.254l-.037.037a.987.987 0 0 0 0 1.395l.035.035a.984.984 0 0 0 1.362-.033L2.635 8l-.699-.699a.986.986 0 0 0-.699-.29"/><path fill="#005CB9" d="M15.75 8a.986.986 0 0 1-.289.697l-.035.035.035-.033A.99.99 0 0 0 15.75 8m-5.663-5.662a.987.987 0 0 0-.698 1.687L13.364 8l.699-.699a.984.984 0 0 1 1.36-.036l-4.638-4.638a.983.983 0 0 0-.698-.289M13.364 8l-3.976 3.977a.986.986 0 0 0 .698 1.686.984.984 0 0 0 .699-.29l4.64-4.64a.984.984 0 0 1-1.36-.034L13.364 8m2.06-.735l.037.037a.987.987 0 0 1-.037-.037"/><path fill="#015595" d="M14.763 7.011a.984.984 0 0 0-.699.29l-.7.699.699.699a.984.984 0 0 0 1.362.034l.035-.035a.987.987 0 0 0 .001-1.396l-.037-.037a.988.988 0 0 0-.661-.254"/></svg>